  0
SECTION
  2
HEADER
  9
$ACADVER
  1
AC1009
  9
$FILLMODE
 70
 0
  9
$SPLFRAME
 70
 1
  9
$EXTMIN
 10
0
 20
0
 30
0.0
  9
$EXTMAX
 10
1058.33
 20
1058.33
 30
0.0
  0
ENDSEC
  0
SECTION
  2
TABLES
  0
TABLE
  2
LAYER
 70
1
  0
LAYER
  2
0
 70
     0
 62
     7
  6
CONTINUOUS
  0
ENDTAB
  0
ENDSEC
  0
SECTION
  2
ENTITIES
  0
LINE
  8
0
 62
     0
 10
0.0950846
 20
141.369
 30
0.0
 11
141.312
 21
141.369
 31
0.0
  0
LINE
  8
0
 62
     0
 10
141.312
 20
141.369
 30
0.0
 11
141.312
 21
0.261827
 31
0.0
  0
LINE
  8
0
 62
     0
 10
141.312
 20
0.261827
 30
0.0
 11
0.0950846
 21
0.261827
 31
0.0
  0
LINE
  8
0
 62
     0
 10
0.0950846
 20
0.261827
 30
0.0
 11
0.0950846
 21
141.369
 31
0.0
  0
LINE
  8
0
 62
     0
 10
119.35
 20
9.53604
 30
0.0
 11
132.038
 21
3.61872
 31
0.0
  0
LINE
  8
0
 62
     0
 10
132.038
 20
3.61872
 30
0.0
 11
137.956
 21
16.3091
 31
0.0
  0
LINE
  8
0
 62
     0
 10
137.956
 20
16.3091
 30
0.0
 11
125.266
 21
22.225
 31
0.0
  0
LINE
  8
0
 62
     0
 10
125.266
 20
22.225
 30
0.0
 11
119.35
 21
9.53604
 31
0.0
  0
LINE
  8
0
 62
     0
 10
100.295
 20
15.1749
 30
0.0
 11
113.818
 21
11.5521
 31
0.0
  0
LINE
  8
0
 62
     0
 10
113.818
 20
11.5521
 30
0.0
 11
117.442
 21
25.0748
 31
0.0
  0
LINE
  8
0
 62
     0
 10
117.442
 20
25.0748
 30
0.0
 11
103.918
 21
28.6977
 31
0.0
  0
LINE
  8
0
 62
     0
 10
103.918
 20
28.6977
 30
0.0
 11
100.295
 21
15.1749
 31
0.0
  0
LINE
  8
0
 62
     0
 10
77.972
 20
15.2508
 30
0.0
 11
91.9194
 21
14.0312
 31
0.0
  0
LINE
  8
0
 62
     0
 10
91.9194
 20
14.0312
 30
0.0
 11
93.139
 21
27.9769
 31
0.0
  0
LINE
  8
0
 62
     0
 10
93.139
 20
27.9769
 30
0.0
 11
79.193
 21
29.1979
 31
0.0
  0
LINE
  8
0
 62
     0
 10
79.193
 20
29.1979
 30
0.0
 11
77.972
 21
15.2508
 31
0.0
  0
LINE
  8
0
 62
     0
 10
53.9584
 20
29.6885
 30
0.0
 11
67.9581
 21
29.6885
 31
0.0
  0
LINE
  8
0
 62
     0
 10
67.9581
 20
29.6885
 30
0.0
 11
67.9581
 21
15.689
 31
0.0
  0
LINE
  8
0
 62
     0
 10
67.9581
 20
15.689
 30
0.0
 11
53.9584
 21
15.689
 31
0.0
  0
LINE
  8
0
 62
     0
 10
53.9584
 20
15.689
 30
0.0
 11
53.9584
 21
29.6885
 31
0.0
  0
LINE
  8
0
 62
     0
 10
7.85756
 20
33.4987
 30
0.0
 11
21.8571
 21
33.4987
 31
0.0
  0
LINE
  8
0
 62
     0
 10
21.8571
 20
33.4987
 30
0.0
 11
21.8571
 21
19.4979
 31
0.0
  0
LINE
  8
0
 62
     0
 10
21.8571
 20
19.4979
 30
0.0
 11
7.85756
 21
19.4979
 31
0.0
  0
LINE
  8
0
 62
     0
 10
7.85756
 20
19.4979
 30
0.0
 11
7.85756
 21
33.4987
 31
0.0
  0
LINE
  8
0
 62
     0
 10
29.2888
 20
33.4987
 30
0.0
 11
43.2897
 21
33.4987
 31
0.0
  0
LINE
  8
0
 62
     0
 10
43.2897
 20
33.4987
 30
0.0
 11
43.2897
 21
19.4979
 31
0.0
  0
LINE
  8
0
 62
     0
 10
43.2897
 20
19.4979
 30
0.0
 11
29.2888
 21
19.4979
 31
0.0
  0
LINE
  8
0
 62
     0
 10
29.2888
 20
19.4979
 30
0.0
 11
29.2888
 21
33.4987
 31
0.0
  0
LINE
  8
0
 62
     0
 10
124.539
 20
40.7377
 30
0.0
 11
138.54
 21
40.7377
 31
0.0
  0
LINE
  8
0
 62
     0
 10
138.54
 20
40.7377
 30
0.0
 11
138.54
 21
26.7381
 31
0.0
  0
LINE
  8
0
 62
     0
 10
138.54
 20
26.7381
 30
0.0
 11
124.539
 21
26.7381
 31
0.0
  0
LINE
  8
0
 62
     0
 10
124.539
 20
26.7381
 30
0.0
 11
124.539
 21
40.7377
 31
0.0
  0
LINE
  8
0
 62
     0
 10
7.85756
 20
52.5487
 30
0.0
 11
21.8571
 21
52.5487
 31
0.0
  0
LINE
  8
0
 62
     0
 10
21.8571
 20
52.5487
 30
0.0
 11
21.8571
 21
38.548
 31
0.0
  0
LINE
  8
0
 62
     0
 10
21.8571
 20
38.548
 30
0.0
 11
7.85756
 21
38.548
 31
0.0
  0
LINE
  8
0
 62
     0
 10
7.85756
 20
38.548
 30
0.0
 11
7.85756
 21
52.5487
 31
0.0
  0
LINE
  8
0
 62
     0
 10
29.2888
 20
52.5487
 30
0.0
 11
43.2897
 21
52.5487
 31
0.0
  0
LINE
  8
0
 62
     0
 10
43.2897
 20
52.5487
 30
0.0
 11
43.2897
 21
38.548
 31
0.0
  0
LINE
  8
0
 62
     0
 10
43.2897
 20
38.548
 30
0.0
 11
29.2888
 21
38.548
 31
0.0
  0
LINE
  8
0
 62
     0
 10
29.2888
 20
38.548
 30
0.0
 11
29.2888
 21
52.5487
 31
0.0
  0
LINE
  8
0
 62
     0
 10
105.489
 20
52.5487
 30
0.0
 11
119.49
 21
52.5487
 31
0.0
  0
LINE
  8
0
 62
     0
 10
119.49
 20
52.5487
 30
0.0
 11
119.49
 21
38.548
 31
0.0
  0
LINE
  8
0
 62
     0
 10
119.49
 20
38.548
 30
0.0
 11
105.489
 21
38.548
 31
0.0
  0
LINE
  8
0
 62
     0
 10
105.489
 20
38.548
 30
0.0
 11
105.489
 21
52.5487
 31
0.0
  0
LINE
  8
0
 62
     0
 10
48.3387
 20
57.3098
 30
0.0
 11
62.3397
 21
57.3098
 31
0.0
  0
LINE
  8
0
 62
     0
 10
62.3397
 20
57.3098
 30
0.0
 11
62.3397
 21
43.3105
 31
0.0
  0
LINE
  8
0
 62
     0
 10
62.3397
 20
43.3105
 30
0.0
 11
48.3387
 21
43.3105
 31
0.0
  0
LINE
  8
0
 62
     0
 10
48.3387
 20
43.3105
 30
0.0
 11
48.3387
 21
57.3098
 31
0.0
  0
LINE
  8
0
 62
     0
 10
86.4387
 20
57.3098
 30
0.0
 11
100.44
 21
57.3098
 31
0.0
  0
LINE
  8
0
 62
     0
 10
100.44
 20
57.3098
 30
0.0
 11
100.44
 21
43.3105
 31
0.0
  0
LINE
  8
0
 62
     0
 10
100.44
 20
43.3105
 30
0.0
 11
86.4387
 21
43.3105
 31
0.0
  0
LINE
  8
0
 62
     0
 10
86.4387
 20
43.3105
 30
0.0
 11
86.4387
 21
57.3098
 31
0.0
  0
LINE
  8
0
 62
     0
 10
67.3887
 20
59.7877
 30
0.0
 11
81.3897
 21
59.7877
 31
0.0
  0
LINE
  8
0
 62
     0
 10
81.3897
 20
59.7877
 30
0.0
 11
81.3897
 21
45.7881
 31
0.0
  0
LINE
  8
0
 62
     0
 10
81.3897
 20
45.7881
 30
0.0
 11
67.3887
 21
45.7881
 31
0.0
  0
LINE
  8
0
 62
     0
 10
67.3887
 20
45.7881
 30
0.0
 11
67.3887
 21
59.7877
 31
0.0
  0
LINE
  8
0
 62
     0
 10
124.539
 20
59.7877
 30
0.0
 11
138.54
 21
59.7877
 31
0.0
  0
LINE
  8
0
 62
     0
 10
138.54
 20
59.7877
 30
0.0
 11
138.54
 21
45.7881
 31
0.0
  0
LINE
  8
0
 62
     0
 10
138.54
 20
45.7881
 30
0.0
 11
124.539
 21
45.7881
 31
0.0
  0
LINE
  8
0
 62
     0
 10
124.539
 20
45.7881
 30
0.0
 11
124.539
 21
59.7877
 31
0.0
  0
LINE
  8
0
 62
     0
 10
7.85756
 20
71.5987
 30
0.0
 11
21.8571
 21
71.5987
 31
0.0
  0
LINE
  8
0
 62
     0
 10
21.8571
 20
71.5987
 30
0.0
 11
21.8571
 21
57.598
 31
0.0
  0
LINE
  8
0
 62
     0
 10
21.8571
 20
57.598
 30
0.0
 11
7.85756
 21
57.598
 31
0.0
  0
LINE
  8
0
 62
     0
 10
7.85756
 20
57.598
 30
0.0
 11
7.85756
 21
71.5987
 31
0.0
  0
LINE
  8
0
 62
     0
 10
29.2888
 20
71.5987
 30
0.0
 11
43.2897
 21
71.5987
 31
0.0
  0
LINE
  8
0
 62
     0
 10
43.2897
 20
71.5987
 30
0.0
 11
43.2897
 21
57.598
 31
0.0
  0
LINE
  8
0
 62
     0
 10
43.2897
 20
57.598
 30
0.0
 11
29.2888
 21
57.598
 31
0.0
  0
LINE
  8
0
 62
     0
 10
29.2888
 20
57.598
 30
0.0
 11
29.2888
 21
71.5987
 31
0.0
  0
LINE
  8
0
 62
     0
 10
105.489
 20
71.5987
 30
0.0
 11
119.49
 21
71.5987
 31
0.0
  0
LINE
  8
0
 62
     0
 10
119.49
 20
71.5987
 30
0.0
 11
119.49
 21
57.598
 31
0.0
  0
LINE
  8
0
 62
     0
 10
119.49
 20
57.598
 30
0.0
 11
105.489
 21
57.598
 31
0.0
  0
LINE
  8
0
 62
     0
 10
105.489
 20
57.598
 30
0.0
 11
105.489
 21
71.5987
 31
0.0
  0
LINE
  8
0
 62
     0
 10
48.3387
 20
76.3598
 30
0.0
 11
62.3397
 21
76.3598
 31
0.0
  0
LINE
  8
0
 62
     0
 10
62.3397
 20
76.3598
 30
0.0
 11
62.3397
 21
62.3605
 31
0.0
  0
LINE
  8
0
 62
     0
 10
62.3397
 20
62.3605
 30
0.0
 11
48.3387
 21
62.3605
 31
0.0
  0
LINE
  8
0
 62
     0
 10
48.3387
 20
62.3605
 30
0.0
 11
48.3387
 21
76.3598
 31
0.0
  0
LINE
  8
0
 62
     0
 10
86.4387
 20
76.3598
 30
0.0
 11
100.44
 21
76.3598
 31
0.0
  0
LINE
  8
0
 62
     0
 10
100.44
 20
76.3598
 30
0.0
 11
100.44
 21
62.3605
 31
0.0
  0
LINE
  8
0
 62
     0
 10
100.44
 20
62.3605
 30
0.0
 11
86.4387
 21
62.3605
 31
0.0
  0
LINE
  8
0
 62
     0
 10
86.4387
 20
62.3605
 30
0.0
 11
86.4387
 21
76.3598
 31
0.0
  0
LINE
  8
0
 62
     0
 10
67.3887
 20
78.8377
 30
0.0
 11
81.3897
 21
78.8377
 31
0.0
  0
LINE
  8
0
 62
     0
 10
81.3897
 20
78.8377
 30
0.0
 11
81.3897
 21
64.8381
 31
0.0
  0
LINE
  8
0
 62
     0
 10
81.3897
 20
64.8381
 30
0.0
 11
67.3887
 21
64.8381
 31
0.0
  0
LINE
  8
0
 62
     0
 10
67.3887
 20
64.8381
 30
0.0
 11
67.3887
 21
78.8377
 31
0.0
  0
LINE
  8
0
 62
     0
 10
7.85756
 20
90.6487
 30
0.0
 11
21.8571
 21
90.6487
 31
0.0
  0
LINE
  8
0
 62
     0
 10
21.8571
 20
90.6487
 30
0.0
 11
21.8571
 21
76.648
 31
0.0
  0
LINE
  8
0
 62
     0
 10
21.8571
 20
76.648
 30
0.0
 11
7.85756
 21
76.648
 31
0.0
  0
LINE
  8
0
 62
     0
 10
7.85756
 20
76.648
 30
0.0
 11
7.85756
 21
90.6487
 31
0.0
  0
LINE
  8
0
 62
     0
 10
29.2888
 20
90.6487
 30
0.0
 11
43.2897
 21
90.6487
 31
0.0
  0
LINE
  8
0
 62
     0
 10
43.2897
 20
90.6487
 30
0.0
 11
43.2897
 21
76.648
 31
0.0
  0
LINE
  8
0
 62
     0
 10
43.2897
 20
76.648
 30
0.0
 11
29.2888
 21
76.648
 31
0.0
  0
LINE
  8
0
 62
     0
 10
29.2888
 20
76.648
 30
0.0
 11
29.2888
 21
90.6487
 31
0.0
  0
LINE
  8
0
 62
     0
 10
105.489
 20
90.6487
 30
0.0
 11
119.49
 21
90.6487
 31
0.0
  0
LINE
  8
0
 62
     0
 10
119.49
 20
90.6487
 30
0.0
 11
119.49
 21
76.648
 31
0.0
  0
LINE
  8
0
 62
     0
 10
119.49
 20
76.648
 30
0.0
 11
105.489
 21
76.648
 31
0.0
  0
LINE
  8
0
 62
     0
 10
105.489
 20
76.648
 30
0.0
 11
105.489
 21
90.6487
 31
0.0
  0
LINE
  8
0
 62
     0
 10
48.3387
 20
95.4098
 30
0.0
 11
62.3397
 21
95.4098
 31
0.0
  0
LINE
  8
0
 62
     0
 10
62.3397
 20
95.4098
 30
0.0
 11
62.3397
 21
81.4105
 31
0.0
  0
LINE
  8
0
 62
     0
 10
62.3397
 20
81.4105
 30
0.0
 11
48.3387
 21
81.4105
 31
0.0
  0
LINE
  8
0
 62
     0
 10
48.3387
 20
81.4105
 30
0.0
 11
48.3387
 21
95.4098
 31
0.0
  0
LINE
  8
0
 62
     0
 10
86.4387
 20
95.4098
 30
0.0
 11
100.44
 21
95.4098
 31
0.0
  0
LINE
  8
0
 62
     0
 10
100.44
 20
95.4098
 30
0.0
 11
100.44
 21
81.4105
 31
0.0
  0
LINE
  8
0
 62
     0
 10
100.44
 20
81.4105
 30
0.0
 11
86.4387
 21
81.4105
 31
0.0
  0
LINE
  8
0
 62
     0
 10
86.4387
 20
81.4105
 30
0.0
 11
86.4387
 21
95.4098
 31
0.0
  0
LINE
  8
0
 62
     0
 10
67.3887
 20
97.8877
 30
0.0
 11
81.3897
 21
97.8877
 31
0.0
  0
LINE
  8
0
 62
     0
 10
81.3897
 20
97.8877
 30
0.0
 11
81.3897
 21
83.8881
 31
0.0
  0
LINE
  8
0
 62
     0
 10
81.3897
 20
83.8881
 30
0.0
 11
67.3887
 21
83.8881
 31
0.0
  0
LINE
  8
0
 62
     0
 10
67.3887
 20
83.8881
 30
0.0
 11
67.3887
 21
97.8877
 31
0.0
  0
LINE
  8
0
 62
     0
 10
7.85756
 20
109.699
 30
0.0
 11
21.8571
 21
109.699
 31
0.0
  0
LINE
  8
0
 62
     0
 10
21.8571
 20
109.699
 30
0.0
 11
21.8571
 21
95.698
 31
0.0
  0
LINE
  8
0
 62
     0
 10
21.8571
 20
95.698
 30
0.0
 11
7.85756
 21
95.698
 31
0.0
  0
LINE
  8
0
 62
     0
 10
7.85756
 20
95.698
 30
0.0
 11
7.85756
 21
109.699
 31
0.0
  0
LINE
  8
0
 62
     0
 10
29.2888
 20
109.699
 30
0.0
 11
43.2897
 21
109.699
 31
0.0
  0
LINE
  8
0
 62
     0
 10
43.2897
 20
109.699
 30
0.0
 11
43.2897
 21
95.698
 31
0.0
  0
LINE
  8
0
 62
     0
 10
43.2897
 20
95.698
 30
0.0
 11
29.2888
 21
95.698
 31
0.0
  0
LINE
  8
0
 62
     0
 10
29.2888
 20
95.698
 30
0.0
 11
29.2888
 21
109.699
 31
0.0
  0
LINE
  8
0
 62
     0
 10
105.489
 20
109.699
 30
0.0
 11
119.49
 21
109.699
 31
0.0
  0
LINE
  8
0
 62
     0
 10
119.49
 20
109.699
 30
0.0
 11
119.49
 21
95.698
 31
0.0
  0
LINE
  8
0
 62
     0
 10
119.49
 20
95.698
 30
0.0
 11
105.489
 21
95.698
 31
0.0
  0
LINE
  8
0
 62
     0
 10
105.489
 20
95.698
 30
0.0
 11
105.489
 21
109.699
 31
0.0
  0
LINE
  8
0
 62
     0
 10
48.3387
 20
114.46
 30
0.0
 11
62.3397
 21
114.46
 31
0.0
  0
LINE
  8
0
 62
     0
 10
62.3397
 20
114.46
 30
0.0
 11
62.3397
 21
100.461
 31
0.0
  0
LINE
  8
0
 62
     0
 10
62.3397
 20
100.461
 30
0.0
 11
48.3387
 21
100.461
 31
0.0
  0
LINE
  8
0
 62
     0
 10
48.3387
 20
100.461
 30
0.0
 11
48.3387
 21
114.46
 31
0.0
  0
LINE
  8
0
 62
     0
 10
86.4387
 20
114.46
 30
0.0
 11
100.44
 21
114.46
 31
0.0
  0
LINE
  8
0
 62
     0
 10
100.44
 20
114.46
 30
0.0
 11
100.44
 21
100.461
 31
0.0
  0
LINE
  8
0
 62
     0
 10
100.44
 20
100.461
 30
0.0
 11
86.4387
 21
100.461
 31
0.0
  0
LINE
  8
0
 62
     0
 10
86.4387
 20
100.461
 30
0.0
 11
86.4387
 21
114.46
 31
0.0
  0
LINE
  8
0
 62
     0
 10
67.3887
 20
116.938
 30
0.0
 11
81.3897
 21
116.938
 31
0.0
  0
LINE
  8
0
 62
     0
 10
81.3897
 20
116.938
 30
0.0
 11
81.3897
 21
102.938
 31
0.0
  0
LINE
  8
0
 62
     0
 10
81.3897
 20
102.938
 30
0.0
 11
67.3887
 21
102.938
 31
0.0
  0
LINE
  8
0
 62
     0
 10
67.3887
 20
102.938
 30
0.0
 11
67.3887
 21
116.938
 31
0.0
  0
LINE
  8
0
 62
     0
 10
7.85756
 20
128.749
 30
0.0
 11
21.8571
 21
128.749
 31
0.0
  0
LINE
  8
0
 62
     0
 10
21.8571
 20
128.749
 30
0.0
 11
21.8571
 21
114.748
 31
0.0
  0
LINE
  8
0
 62
     0
 10
21.8571
 20
114.748
 30
0.0
 11
7.85756
 21
114.748
 31
0.0
  0
LINE
  8
0
 62
     0
 10
7.85756
 20
114.748
 30
0.0
 11
7.85756
 21
128.749
 31
0.0
  0
LINE
  8
0
 62
     0
 10
29.2888
 20
128.749
 30
0.0
 11
43.2897
 21
128.749
 31
0.0
  0
LINE
  8
0
 62
     0
 10
43.2897
 20
128.749
 30
0.0
 11
43.2897
 21
114.748
 31
0.0
  0
LINE
  8
0
 62
     0
 10
43.2897
 20
114.748
 30
0.0
 11
29.2888
 21
114.748
 31
0.0
  0
LINE
  8
0
 62
     0
 10
29.2888
 20
114.748
 30
0.0
 11
29.2888
 21
128.749
 31
0.0
  0
LINE
  8
0
 62
     0
 10
105.489
 20
128.749
 30
0.0
 11
119.49
 21
128.749
 31
0.0
  0
LINE
  8
0
 62
     0
 10
119.49
 20
128.749
 30
0.0
 11
119.49
 21
114.748
 31
0.0
  0
LINE
  8
0
 62
     0
 10
119.49
 20
114.748
 30
0.0
 11
105.489
 21
114.748
 31
0.0
  0
LINE
  8
0
 62
     0
 10
105.489
 20
114.748
 30
0.0
 11
105.489
 21
128.749
 31
0.0
  0
LINE
  8
0
 62
     0
 10
48.3387
 20
133.51
 30
0.0
 11
62.3397
 21
133.51
 31
0.0
  0
LINE
  8
0
 62
     0
 10
62.3397
 20
133.51
 30
0.0
 11
62.3397
 21
119.511
 31
0.0
  0
LINE
  8
0
 62
     0
 10
62.3397
 20
119.511
 30
0.0
 11
48.3387
 21
119.511
 31
0.0
  0
LINE
  8
0
 62
     0
 10
48.3387
 20
119.511
 30
0.0
 11
48.3387
 21
133.51
 31
0.0
  0
LINE
  8
0
 62
     0
 10
86.4387
 20
133.51
 30
0.0
 11
100.44
 21
133.51
 31
0.0
  0
LINE
  8
0
 62
     0
 10
100.44
 20
133.51
 30
0.0
 11
100.44
 21
119.511
 31
0.0
  0
LINE
  8
0
 62
     0
 10
100.44
 20
119.511
 30
0.0
 11
86.4387
 21
119.511
 31
0.0
  0
LINE
  8
0
 62
     0
 10
86.4387
 20
119.511
 30
0.0
 11
86.4387
 21
133.51
 31
0.0
  0
LINE
  8
0
 62
     0
 10
67.3887
 20
135.988
 30
0.0
 11
81.3897
 21
135.988
 31
0.0
  0
LINE
  8
0
 62
     0
 10
81.3897
 20
135.988
 30
0.0
 11
81.3897
 21
121.988
 31
0.0
  0
LINE
  8
0
 62
     0
 10
81.3897
 20
121.988
 30
0.0
 11
67.3887
 21
121.988
 31
0.0
  0
LINE
  8
0
 62
     0
 10
67.3887
 20
121.988
 30
0.0
 11
67.3887
 21
135.988
 31
0.0
  0
ENDSEC
  0
EOF
