0
SECTION
2
HEADER
9
$INSUNITS
70
4
0
ENDSEC
0
SECTION
2
TABLES
0
TABLE
2
LTYPE
0
LTYPE
72
65
70
0
2
CONTINUOUS
3
______
73
0
40
0
0
LTYPE
72
65
70
0
2
DASHED
3
_ _ _ 
73
2
40
7.5
49
5
49
-2.5
0
LTYPE
72
65
70
0
2
DOTTED
3
. . . 
73
2
40
1.5
49
0.5
49
-1
0
ENDTAB
0
TABLE
2
LAYER
0
ENDTAB
0
ENDSEC
0
SECTION
2
ENTITIES
0
LINE
8
0
6
CONTINUOUS
10
67.295
20
-33.289
11
81.295
21
-33.289
0
LINE
8
0
6
CONTINUOUS
10
81.295
20
-19.289
11
67.295
21
-19.289
0
LINE
8
0
6
CONTINUOUS
10
81.295
20
-33.289
11
81.295
21
-19.289
0
LINE
8
0
6
CONTINUOUS
10
67.295
20
-19.289
11
67.295
21
-33.289
0
LINE
8
0
6
CONTINUOUS
10
48.245
20
-35.67025
11
62.245
21
-35.67025
0
LINE
8
0
6
CONTINUOUS
10
62.245
20
-21.67025
11
48.245
21
-21.67025
0
LINE
8
0
6
CONTINUOUS
10
62.245
20
-35.67025
11
62.245
21
-21.67025
0
LINE
8
0
6
CONTINUOUS
10
48.245
20
-21.67025
11
48.245
21
-35.67025
0
LINE
8
0
6
CONTINUOUS
10
86.345
20
-40.43275
11
100.345
21
-40.43275
0
LINE
8
0
6
CONTINUOUS
10
100.345
20
-26.43275
11
86.345
21
-26.43275
0
LINE
8
0
6
CONTINUOUS
10
100.345
20
-40.43275
11
100.345
21
-26.43275
0
LINE
8
0
6
CONTINUOUS
10
86.345
20
-26.43275
11
86.345
21
-40.43275
0
LINE
8
0
6
CONTINUOUS
10
105.395
20
-40.43275
11
119.395
21
-40.43275
0
LINE
8
0
6
CONTINUOUS
10
119.395
20
-26.43275
11
105.395
21
-26.43275
0
LINE
8
0
6
CONTINUOUS
10
119.395
20
-40.43275
11
119.395
21
-26.43275
0
LINE
8
0
6
CONTINUOUS
10
105.395
20
-26.43275
11
105.395
21
-40.43275
0
LINE
8
0
6
CONTINUOUS
10
7.76375
20
-42.814
11
21.76375
21
-42.814
0
LINE
8
0
6
CONTINUOUS
10
21.76375
20
-28.814
11
7.76375
21
-28.814
0
LINE
8
0
6
CONTINUOUS
10
21.76375
20
-42.814
11
21.76375
21
-28.814
0
LINE
8
0
6
CONTINUOUS
10
7.76375
20
-28.814
11
7.76375
21
-42.814
0
LINE
8
0
6
CONTINUOUS
10
29.195
20
-42.814
11
43.195
21
-42.814
0
LINE
8
0
6
CONTINUOUS
10
43.195
20
-28.814
11
29.195
21
-28.814
0
LINE
8
0
6
CONTINUOUS
10
43.195
20
-42.814
11
43.195
21
-28.814
0
LINE
8
0
6
CONTINUOUS
10
29.195
20
-28.814
11
29.195
21
-42.814
0
LINE
8
0
6
CONTINUOUS
10
67.295
20
-52.339
11
81.295
21
-52.339
0
LINE
8
0
6
CONTINUOUS
10
81.295
20
-38.339
11
67.295
21
-38.339
0
LINE
8
0
6
CONTINUOUS
10
81.295
20
-52.339
11
81.295
21
-38.339
0
LINE
8
0
6
CONTINUOUS
10
67.295
20
-38.339
11
67.295
21
-52.339
0
LINE
8
0
6
CONTINUOUS
10
48.245
20
-54.72025
11
62.245
21
-54.72025
0
LINE
8
0
6
CONTINUOUS
10
62.245
20
-40.72025
11
48.245
21
-40.72025
0
LINE
8
0
6
CONTINUOUS
10
62.245
20
-54.72025
11
62.245
21
-40.72025
0
LINE
8
0
6
CONTINUOUS
10
48.245
20
-40.72025
11
48.245
21
-54.72025
0
LINE
8
0
6
CONTINUOUS
10
86.345
20
-59.48275
11
100.345
21
-59.48275
0
LINE
8
0
6
CONTINUOUS
10
100.345
20
-45.48275
11
86.345
21
-45.48275
0
LINE
8
0
6
CONTINUOUS
10
100.345
20
-59.48275
11
100.345
21
-45.48275
0
LINE
8
0
6
CONTINUOUS
10
86.345
20
-45.48275
11
86.345
21
-59.48275
0
LINE
8
0
6
CONTINUOUS
10
105.395
20
-59.48275
11
119.395
21
-59.48275
0
LINE
8
0
6
CONTINUOUS
10
119.395
20
-45.48275
11
105.395
21
-45.48275
0
LINE
8
0
6
CONTINUOUS
10
119.395
20
-59.48275
11
119.395
21
-45.48275
0
LINE
8
0
6
CONTINUOUS
10
105.395
20
-45.48275
11
105.395
21
-59.48275
0
LINE
8
0
6
CONTINUOUS
10
7.76375
20
-61.864
11
21.76375
21
-61.864
0
LINE
8
0
6
CONTINUOUS
10
21.76375
20
-47.864
11
7.76375
21
-47.864
0
LINE
8
0
6
CONTINUOUS
10
21.76375
20
-61.864
11
21.76375
21
-47.864
0
LINE
8
0
6
CONTINUOUS
10
7.76375
20
-47.864
11
7.76375
21
-61.864
0
LINE
8
0
6
CONTINUOUS
10
29.195
20
-61.864
11
43.195
21
-61.864
0
LINE
8
0
6
CONTINUOUS
10
43.195
20
-47.864
11
29.195
21
-47.864
0
LINE
8
0
6
CONTINUOUS
10
43.195
20
-61.864
11
43.195
21
-47.864
0
LINE
8
0
6
CONTINUOUS
10
29.195
20
-47.864
11
29.195
21
-61.864
0
LINE
8
0
6
CONTINUOUS
10
67.295
20
-71.389
11
81.295
21
-71.389
0
LINE
8
0
6
CONTINUOUS
10
81.295
20
-57.389
11
67.295
21
-57.389
0
LINE
8
0
6
CONTINUOUS
10
81.295
20
-71.389
11
81.295
21
-57.389
0
LINE
8
0
6
CONTINUOUS
10
67.295
20
-57.389
11
67.295
21
-71.389
0
LINE
8
0
6
CONTINUOUS
10
48.245
20
-73.77025
11
62.245
21
-73.77025
0
LINE
8
0
6
CONTINUOUS
10
62.245
20
-59.77025
11
48.245
21
-59.77025
0
LINE
8
0
6
CONTINUOUS
10
62.245
20
-73.77025
11
62.245
21
-59.77025
0
LINE
8
0
6
CONTINUOUS
10
48.245
20
-59.77025
11
48.245
21
-73.77025
0
LINE
8
0
6
CONTINUOUS
10
86.345
20
-78.53275
11
100.345
21
-78.53275
0
LINE
8
0
6
CONTINUOUS
10
100.345
20
-64.53275
11
86.345
21
-64.53275
0
LINE
8
0
6
CONTINUOUS
10
100.345
20
-78.53275
11
100.345
21
-64.53275
0
LINE
8
0
6
CONTINUOUS
10
86.345
20
-64.53275
11
86.345
21
-78.53275
0
LINE
8
0
6
CONTINUOUS
10
105.395
20
-78.53275
11
119.395
21
-78.53275
0
LINE
8
0
6
CONTINUOUS
10
119.395
20
-64.53275
11
105.395
21
-64.53275
0
LINE
8
0
6
CONTINUOUS
10
119.395
20
-78.53275
11
119.395
21
-64.53275
0
LINE
8
0
6
CONTINUOUS
10
105.395
20
-64.53275
11
105.395
21
-78.53275
0
LINE
8
0
6
CONTINUOUS
10
7.76375
20
-80.914
11
21.76375
21
-80.914
0
LINE
8
0
6
CONTINUOUS
10
21.76375
20
-66.914
11
7.76375
21
-66.914
0
LINE
8
0
6
CONTINUOUS
10
21.76375
20
-80.914
11
21.76375
21
-66.914
0
LINE
8
0
6
CONTINUOUS
10
7.76375
20
-66.914
11
7.76375
21
-80.914
0
LINE
8
0
6
CONTINUOUS
10
29.195
20
-80.914
11
43.195
21
-80.914
0
LINE
8
0
6
CONTINUOUS
10
43.195
20
-66.914
11
29.195
21
-66.914
0
LINE
8
0
6
CONTINUOUS
10
43.195
20
-80.914
11
43.195
21
-66.914
0
LINE
8
0
6
CONTINUOUS
10
29.195
20
-66.914
11
29.195
21
-80.914
0
LINE
8
0
6
CONTINUOUS
10
67.295
20
-90.439
11
81.295
21
-90.439
0
LINE
8
0
6
CONTINUOUS
10
81.295
20
-76.439
11
67.295
21
-76.439
0
LINE
8
0
6
CONTINUOUS
10
81.295
20
-90.439
11
81.295
21
-76.439
0
LINE
8
0
6
CONTINUOUS
10
67.295
20
-76.439
11
67.295
21
-90.439
0
LINE
8
0
6
CONTINUOUS
10
48.245
20
-92.82025
11
62.245
21
-92.82025
0
LINE
8
0
6
CONTINUOUS
10
62.245
20
-78.82025
11
48.245
21
-78.82025
0
LINE
8
0
6
CONTINUOUS
10
62.245
20
-92.82025
11
62.245
21
-78.82025
0
LINE
8
0
6
CONTINUOUS
10
48.245
20
-78.82025
11
48.245
21
-92.82025
0
LINE
8
0
6
CONTINUOUS
10
86.345
20
-97.58275
11
100.345
21
-97.58275
0
LINE
8
0
6
CONTINUOUS
10
100.345
20
-83.58275
11
86.345
21
-83.58275
0
LINE
8
0
6
CONTINUOUS
10
100.345
20
-97.58275
11
100.345
21
-83.58275
0
LINE
8
0
6
CONTINUOUS
10
86.345
20
-83.58275
11
86.345
21
-97.58275
0
LINE
8
0
6
CONTINUOUS
10
105.395
20
-97.58275
11
119.395
21
-97.58275
0
LINE
8
0
6
CONTINUOUS
10
119.395
20
-83.58275
11
105.395
21
-83.58275
0
LINE
8
0
6
CONTINUOUS
10
119.395
20
-97.58275
11
119.395
21
-83.58275
0
LINE
8
0
6
CONTINUOUS
10
105.395
20
-83.58275
11
105.395
21
-97.58275
0
LINE
8
0
6
CONTINUOUS
10
7.76375
20
-99.964
11
21.76375
21
-99.964
0
LINE
8
0
6
CONTINUOUS
10
21.76375
20
-85.964
11
7.76375
21
-85.964
0
LINE
8
0
6
CONTINUOUS
10
21.76375
20
-99.964
11
21.76375
21
-85.964
0
LINE
8
0
6
CONTINUOUS
10
7.76375
20
-85.964
11
7.76375
21
-99.964
0
LINE
8
0
6
CONTINUOUS
10
29.195
20
-99.964
11
43.195
21
-99.964
0
LINE
8
0
6
CONTINUOUS
10
43.195
20
-85.964
11
29.195
21
-85.964
0
LINE
8
0
6
CONTINUOUS
10
43.195
20
-99.964
11
43.195
21
-85.964
0
LINE
8
0
6
CONTINUOUS
10
29.195
20
-85.964
11
29.195
21
-99.964
0
LINE
8
0
6
CONTINUOUS
10
124.445
20
-99.964
11
138.445
21
-99.964
0
LINE
8
0
6
CONTINUOUS
10
138.445
20
-85.964
11
124.445
21
-85.964
0
LINE
8
0
6
CONTINUOUS
10
138.445
20
-99.964
11
138.445
21
-85.964
0
LINE
8
0
6
CONTINUOUS
10
124.445
20
-85.964
11
124.445
21
-99.964
0
LINE
8
0
6
CONTINUOUS
10
7.76375
20
-119.014
11
21.76375
21
-119.014
0
LINE
8
0
6
CONTINUOUS
10
21.76375
20
-105.014
11
7.76375
21
-105.014
0
LINE
8
0
6
CONTINUOUS
10
21.76375
20
-119.014
11
21.76375
21
-105.014
0
LINE
8
0
6
CONTINUOUS
10
7.76375
20
-105.014
11
7.76375
21
-119.014
0
LINE
8
0
6
CONTINUOUS
10
29.195
20
-119.014
11
43.195
21
-119.014
0
LINE
8
0
6
CONTINUOUS
10
43.195
20
-105.014
11
29.195
21
-105.014
0
LINE
8
0
6
CONTINUOUS
10
43.195
20
-119.014
11
43.195
21
-105.014
0
LINE
8
0
6
CONTINUOUS
10
29.195
20
-105.014
11
29.195
21
-119.014
0
LINE
8
0
6
CONTINUOUS
10
63.00875
20
-119.014
11
77.00875
21
-119.014
0
LINE
8
0
6
CONTINUOUS
10
77.00875
20
-105.014
11
63.00875
21
-105.014
0
LINE
8
0
6
CONTINUOUS
10
77.00875
20
-119.014
11
77.00875
21
-105.014
0
LINE
8
0
6
CONTINUOUS
10
63.00875
20
-105.014
11
63.00875
21
-119.014
0
LINE
8
0
6
CONTINUOUS
10
84.690102
20
-119.291767
11
98.613409
21
-120.755165
0
LINE
8
0
6
CONTINUOUS
10
100.076807
20
-106.831859
11
86.153501
21
-105.36846
0
LINE
8
0
6
CONTINUOUS
10
98.613409
20
-120.755165
11
100.076807
21
-106.831859
0
LINE
8
0
6
CONTINUOUS
10
86.153501
20
-105.36846
11
84.690102
21
-119.291767
0
LINE
8
0
6
CONTINUOUS
10
105.101524
20
-120.000094
11
117.988592
21
-125.47033
0
LINE
8
0
6
CONTINUOUS
10
123.458828
20
-112.583262
11
110.57176
21
-107.113026
0
LINE
8
0
6
CONTINUOUS
10
117.988592
20
-125.47033
11
123.458828
21
-112.583262
0
LINE
8
0
6
CONTINUOUS
10
110.57176
20
-107.113026
11
105.101524
21
-120.000094
0
LINE
8
0
6
CONTINUOUS
10
123.483689
20
-128.839098
11
134.208311
21
-137.838125
0
LINE
8
0
6
CONTINUOUS
10
143.207338
20
-127.113502
11
132.482715
21
-118.114476
0
LINE
8
0
6
CONTINUOUS
10
134.208311
20
-137.838125
11
143.207338
21
-127.113502
0
LINE
8
0
6
CONTINUOUS
10
132.482715
20
-118.114476
11
123.483689
21
-128.839098
0
ENDSEC
0
EOF