0
SECTION
2
HEADER
9
$INSUNITS
70
4
0
ENDSEC
0
SECTION
2
TABLES
0
TABLE
2
LTYPE
0
LTYPE
72
65
70
0
2
CONTINUOUS
3
______
73
0
40
0
0
LTYPE
72
65
70
0
2
DASHED
3
_ _ _ 
73
2
40
7.5
49
5
49
-2.5
0
LTYPE
72
65
70
0
2
DOTTED
3
. . . 
73
2
40
1.5
49
0.5
49
-1
0
ENDTAB
0
TABLE
2
LAYER
0
ENDTAB
0
ENDSEC
0
SECTION
2
ENTITIES
0
LINE
8
0
6
CONTINUOUS
10
64.4375
20
-16.525
11
78.4375
21
-16.525
0
LINE
8
0
6
CONTINUOUS
10
78.4375
20
-2.525
11
64.4375
21
-2.525
0
LINE
8
0
6
CONTINUOUS
10
78.4375
20
-16.525
11
78.4375
21
-2.525
0
LINE
8
0
6
CONTINUOUS
10
64.4375
20
-2.525
11
64.4375
21
-16.525
0
LINE
8
0
6
CONTINUOUS
10
45.3875
20
-18.90625
11
59.3875
21
-18.90625
0
LINE
8
0
6
CONTINUOUS
10
59.3875
20
-4.90625
11
45.3875
21
-4.90625
0
LINE
8
0
6
CONTINUOUS
10
59.3875
20
-18.90625
11
59.3875
21
-4.90625
0
LINE
8
0
6
CONTINUOUS
10
45.3875
20
-4.90625
11
45.3875
21
-18.90625
0
LINE
8
0
6
CONTINUOUS
10
83.4875
20
-23.66875
11
97.4875
21
-23.66875
0
LINE
8
0
6
CONTINUOUS
10
97.4875
20
-9.66875
11
83.4875
21
-9.66875
0
LINE
8
0
6
CONTINUOUS
10
97.4875
20
-23.66875
11
97.4875
21
-9.66875
0
LINE
8
0
6
CONTINUOUS
10
83.4875
20
-9.66875
11
83.4875
21
-23.66875
0
LINE
8
0
6
CONTINUOUS
10
102.5375
20
-23.66875
11
116.5375
21
-23.66875
0
LINE
8
0
6
CONTINUOUS
10
116.5375
20
-9.66875
11
102.5375
21
-9.66875
0
LINE
8
0
6
CONTINUOUS
10
116.5375
20
-23.66875
11
116.5375
21
-9.66875
0
LINE
8
0
6
CONTINUOUS
10
102.5375
20
-9.66875
11
102.5375
21
-23.66875
0
LINE
8
0
6
CONTINUOUS
10
4.90625
20
-26.05
11
18.90625
21
-26.05
0
LINE
8
0
6
CONTINUOUS
10
18.90625
20
-12.05
11
4.90625
21
-12.05
0
LINE
8
0
6
CONTINUOUS
10
18.90625
20
-26.05
11
18.90625
21
-12.05
0
LINE
8
0
6
CONTINUOUS
10
4.90625
20
-12.05
11
4.90625
21
-26.05
0
LINE
8
0
6
CONTINUOUS
10
26.3375
20
-26.05
11
40.3375
21
-26.05
0
LINE
8
0
6
CONTINUOUS
10
40.3375
20
-12.05
11
26.3375
21
-12.05
0
LINE
8
0
6
CONTINUOUS
10
40.3375
20
-26.05
11
40.3375
21
-12.05
0
LINE
8
0
6
CONTINUOUS
10
26.3375
20
-12.05
11
26.3375
21
-26.05
0
LINE
8
0
6
CONTINUOUS
10
64.4375
20
-35.575
11
78.4375
21
-35.575
0
LINE
8
0
6
CONTINUOUS
10
78.4375
20
-21.575
11
64.4375
21
-21.575
0
LINE
8
0
6
CONTINUOUS
10
78.4375
20
-35.575
11
78.4375
21
-21.575
0
LINE
8
0
6
CONTINUOUS
10
64.4375
20
-21.575
11
64.4375
21
-35.575
0
LINE
8
0
6
CONTINUOUS
10
45.3875
20
-37.95625
11
59.3875
21
-37.95625
0
LINE
8
0
6
CONTINUOUS
10
59.3875
20
-23.95625
11
45.3875
21
-23.95625
0
LINE
8
0
6
CONTINUOUS
10
59.3875
20
-37.95625
11
59.3875
21
-23.95625
0
LINE
8
0
6
CONTINUOUS
10
45.3875
20
-23.95625
11
45.3875
21
-37.95625
0
LINE
8
0
6
CONTINUOUS
10
83.4875
20
-42.71875
11
97.4875
21
-42.71875
0
LINE
8
0
6
CONTINUOUS
10
97.4875
20
-28.71875
11
83.4875
21
-28.71875
0
LINE
8
0
6
CONTINUOUS
10
97.4875
20
-42.71875
11
97.4875
21
-28.71875
0
LINE
8
0
6
CONTINUOUS
10
83.4875
20
-28.71875
11
83.4875
21
-42.71875
0
LINE
8
0
6
CONTINUOUS
10
102.5375
20
-42.71875
11
116.5375
21
-42.71875
0
LINE
8
0
6
CONTINUOUS
10
116.5375
20
-28.71875
11
102.5375
21
-28.71875
0
LINE
8
0
6
CONTINUOUS
10
116.5375
20
-42.71875
11
116.5375
21
-28.71875
0
LINE
8
0
6
CONTINUOUS
10
102.5375
20
-28.71875
11
102.5375
21
-42.71875
0
LINE
8
0
6
CONTINUOUS
10
4.90625
20
-45.1
11
18.90625
21
-45.1
0
LINE
8
0
6
CONTINUOUS
10
18.90625
20
-31.1
11
4.90625
21
-31.1
0
LINE
8
0
6
CONTINUOUS
10
18.90625
20
-45.1
11
18.90625
21
-31.1
0
LINE
8
0
6
CONTINUOUS
10
4.90625
20
-31.1
11
4.90625
21
-45.1
0
LINE
8
0
6
CONTINUOUS
10
26.3375
20
-45.1
11
40.3375
21
-45.1
0
LINE
8
0
6
CONTINUOUS
10
40.3375
20
-31.1
11
26.3375
21
-31.1
0
LINE
8
0
6
CONTINUOUS
10
40.3375
20
-45.1
11
40.3375
21
-31.1
0
LINE
8
0
6
CONTINUOUS
10
26.3375
20
-31.1
11
26.3375
21
-45.1
0
LINE
8
0
6
CONTINUOUS
10
64.4375
20
-54.625
11
78.4375
21
-54.625
0
LINE
8
0
6
CONTINUOUS
10
78.4375
20
-40.625
11
64.4375
21
-40.625
0
LINE
8
0
6
CONTINUOUS
10
78.4375
20
-54.625
11
78.4375
21
-40.625
0
LINE
8
0
6
CONTINUOUS
10
64.4375
20
-40.625
11
64.4375
21
-54.625
0
LINE
8
0
6
CONTINUOUS
10
45.3875
20
-57.00625
11
59.3875
21
-57.00625
0
LINE
8
0
6
CONTINUOUS
10
59.3875
20
-43.00625
11
45.3875
21
-43.00625
0
LINE
8
0
6
CONTINUOUS
10
59.3875
20
-57.00625
11
59.3875
21
-43.00625
0
LINE
8
0
6
CONTINUOUS
10
45.3875
20
-43.00625
11
45.3875
21
-57.00625
0
LINE
8
0
6
CONTINUOUS
10
83.4875
20
-61.76875
11
97.4875
21
-61.76875
0
LINE
8
0
6
CONTINUOUS
10
97.4875
20
-47.76875
11
83.4875
21
-47.76875
0
LINE
8
0
6
CONTINUOUS
10
97.4875
20
-61.76875
11
97.4875
21
-47.76875
0
LINE
8
0
6
CONTINUOUS
10
83.4875
20
-47.76875
11
83.4875
21
-61.76875
0
LINE
8
0
6
CONTINUOUS
10
102.5375
20
-61.76875
11
116.5375
21
-61.76875
0
LINE
8
0
6
CONTINUOUS
10
116.5375
20
-47.76875
11
102.5375
21
-47.76875
0
LINE
8
0
6
CONTINUOUS
10
116.5375
20
-61.76875
11
116.5375
21
-47.76875
0
LINE
8
0
6
CONTINUOUS
10
102.5375
20
-47.76875
11
102.5375
21
-61.76875
0
LINE
8
0
6
CONTINUOUS
10
4.90625
20
-64.15
11
18.90625
21
-64.15
0
LINE
8
0
6
CONTINUOUS
10
18.90625
20
-50.15
11
4.90625
21
-50.15
0
LINE
8
0
6
CONTINUOUS
10
18.90625
20
-64.15
11
18.90625
21
-50.15
0
LINE
8
0
6
CONTINUOUS
10
4.90625
20
-50.15
11
4.90625
21
-64.15
0
LINE
8
0
6
CONTINUOUS
10
26.3375
20
-64.15
11
40.3375
21
-64.15
0
LINE
8
0
6
CONTINUOUS
10
40.3375
20
-50.15
11
26.3375
21
-50.15
0
LINE
8
0
6
CONTINUOUS
10
40.3375
20
-64.15
11
40.3375
21
-50.15
0
LINE
8
0
6
CONTINUOUS
10
26.3375
20
-50.15
11
26.3375
21
-64.15
0
LINE
8
0
6
CONTINUOUS
10
64.4375
20
-73.675
11
78.4375
21
-73.675
0
LINE
8
0
6
CONTINUOUS
10
78.4375
20
-59.675
11
64.4375
21
-59.675
0
LINE
8
0
6
CONTINUOUS
10
78.4375
20
-73.675
11
78.4375
21
-59.675
0
LINE
8
0
6
CONTINUOUS
10
64.4375
20
-59.675
11
64.4375
21
-73.675
0
LINE
8
0
6
CONTINUOUS
10
45.3875
20
-76.05625
11
59.3875
21
-76.05625
0
LINE
8
0
6
CONTINUOUS
10
59.3875
20
-62.05625
11
45.3875
21
-62.05625
0
LINE
8
0
6
CONTINUOUS
10
59.3875
20
-76.05625
11
59.3875
21
-62.05625
0
LINE
8
0
6
CONTINUOUS
10
45.3875
20
-62.05625
11
45.3875
21
-76.05625
0
LINE
8
0
6
CONTINUOUS
10
83.4875
20
-80.81875
11
97.4875
21
-80.81875
0
LINE
8
0
6
CONTINUOUS
10
97.4875
20
-66.81875
11
83.4875
21
-66.81875
0
LINE
8
0
6
CONTINUOUS
10
97.4875
20
-80.81875
11
97.4875
21
-66.81875
0
LINE
8
0
6
CONTINUOUS
10
83.4875
20
-66.81875
11
83.4875
21
-80.81875
0
LINE
8
0
6
CONTINUOUS
10
102.5375
20
-80.81875
11
116.5375
21
-80.81875
0
LINE
8
0
6
CONTINUOUS
10
116.5375
20
-66.81875
11
102.5375
21
-66.81875
0
LINE
8
0
6
CONTINUOUS
10
116.5375
20
-80.81875
11
116.5375
21
-66.81875
0
LINE
8
0
6
CONTINUOUS
10
102.5375
20
-66.81875
11
102.5375
21
-80.81875
0
LINE
8
0
6
CONTINUOUS
10
4.90625
20
-83.2
11
18.90625
21
-83.2
0
LINE
8
0
6
CONTINUOUS
10
18.90625
20
-69.2
11
4.90625
21
-69.2
0
LINE
8
0
6
CONTINUOUS
10
18.90625
20
-83.2
11
18.90625
21
-69.2
0
LINE
8
0
6
CONTINUOUS
10
4.90625
20
-69.2
11
4.90625
21
-83.2
0
LINE
8
0
6
CONTINUOUS
10
26.3375
20
-83.2
11
40.3375
21
-83.2
0
LINE
8
0
6
CONTINUOUS
10
40.3375
20
-69.2
11
26.3375
21
-69.2
0
LINE
8
0
6
CONTINUOUS
10
40.3375
20
-83.2
11
40.3375
21
-69.2
0
LINE
8
0
6
CONTINUOUS
10
26.3375
20
-69.2
11
26.3375
21
-83.2
0
LINE
8
0
6
CONTINUOUS
10
121.5875
20
-87.01
11
135.5875
21
-87.01
0
LINE
8
0
6
CONTINUOUS
10
135.5875
20
-73.01
11
121.5875
21
-73.01
0
LINE
8
0
6
CONTINUOUS
10
135.5875
20
-87.01
11
135.5875
21
-73.01
0
LINE
8
0
6
CONTINUOUS
10
121.5875
20
-73.01
11
121.5875
21
-87.01
0
LINE
8
0
6
CONTINUOUS
10
4.90625
20
-102.25
11
18.90625
21
-102.25
0
LINE
8
0
6
CONTINUOUS
10
18.90625
20
-88.25
11
4.90625
21
-88.25
0
LINE
8
0
6
CONTINUOUS
10
18.90625
20
-102.25
11
18.90625
21
-88.25
0
LINE
8
0
6
CONTINUOUS
10
4.90625
20
-88.25
11
4.90625
21
-102.25
0
LINE
8
0
6
CONTINUOUS
10
26.3375
20
-102.25
11
40.3375
21
-102.25
0
LINE
8
0
6
CONTINUOUS
10
40.3375
20
-88.25
11
26.3375
21
-88.25
0
LINE
8
0
6
CONTINUOUS
10
40.3375
20
-102.25
11
40.3375
21
-88.25
0
LINE
8
0
6
CONTINUOUS
10
26.3375
20
-88.25
11
26.3375
21
-102.25
0
LINE
8
0
6
CONTINUOUS
10
58.24625
20
-102.25
11
72.24625
21
-102.25
0
LINE
8
0
6
CONTINUOUS
10
72.24625
20
-88.25
11
58.24625
21
-88.25
0
LINE
8
0
6
CONTINUOUS
10
72.24625
20
-102.25
11
72.24625
21
-88.25
0
LINE
8
0
6
CONTINUOUS
10
58.24625
20
-88.25
11
58.24625
21
-102.25
0
LINE
8
0
6
CONTINUOUS
10
79.927602
20
-102.527767
11
93.850909
21
-103.991165
0
LINE
8
0
6
CONTINUOUS
10
95.314307
20
-90.067859
11
81.391001
21
-88.60446
0
LINE
8
0
6
CONTINUOUS
10
93.850909
20
-103.991165
11
95.314307
21
-90.067859
0
LINE
8
0
6
CONTINUOUS
10
81.391001
20
-88.60446
11
79.927602
21
-102.527767
0
LINE
8
0
6
CONTINUOUS
10
100.339024
20
-103.236094
11
113.226092
21
-108.70633
0
LINE
8
0
6
CONTINUOUS
10
118.696328
20
-95.819262
11
105.80926
21
-90.349026
0
LINE
8
0
6
CONTINUOUS
10
113.226092
20
-108.70633
11
118.696328
21
-95.819262
0
LINE
8
0
6
CONTINUOUS
10
105.80926
20
-90.349026
11
100.339024
21
-103.236094
0
LINE
8
0
6
CONTINUOUS
10
118.721189
20
-112.075098
11
129.445811
21
-121.074125
0
LINE
8
0
6
CONTINUOUS
10
138.444838
20
-110.349503
11
127.720216
21
-101.350476
0
LINE
8
0
6
CONTINUOUS
10
129.445811
20
-121.074125
11
138.444838
21
-110.349503
0
LINE
8
0
6
CONTINUOUS
10
127.720216
20
-101.350476
11
118.721189
21
-112.075098
0
ENDSEC
0
EOF