0
SECTION
2
HEADER
9
$INSUNITS
70
4
0
ENDSEC
0
SECTION
2
TABLES
0
TABLE
2
LTYPE
0
LTYPE
72
65
70
0
2
CONTINUOUS
3
______
73
0
40
0
0
LTYPE
72
65
70
0
2
DASHED
3
_ _ _ 
73
2
40
7.5
49
5
49
-2.5
0
LTYPE
72
65
70
0
2
DOTTED
3
. . . 
73
2
40
1.5
49
0.5
49
-1
0
ENDTAB
0
TABLE
2
LAYER
0
ENDTAB
0
ENDSEC
0
SECTION
2
ENTITIES
0
LINE
8
0
6
CONTINUOUS
10
65.39
20
-16.525
11
79.39
21
-16.525
0
LINE
8
0
6
CONTINUOUS
10
79.39
20
-2.525
11
65.39
21
-2.525
0
LINE
8
0
6
CONTINUOUS
10
79.39
20
-16.525
11
79.39
21
-2.525
0
LINE
8
0
6
CONTINUOUS
10
65.39
20
-2.525
11
65.39
21
-16.525
0
LINE
8
0
6
CONTINUOUS
10
84.44
20
-18.90625
11
98.44
21
-18.90625
0
LINE
8
0
6
CONTINUOUS
10
98.44
20
-4.90625
11
84.44
21
-4.90625
0
LINE
8
0
6
CONTINUOUS
10
98.44
20
-18.90625
11
98.44
21
-4.90625
0
LINE
8
0
6
CONTINUOUS
10
84.44
20
-4.90625
11
84.44
21
-18.90625
0
LINE
8
0
6
CONTINUOUS
10
27.29
20
-23.66875
11
41.29
21
-23.66875
0
LINE
8
0
6
CONTINUOUS
10
41.29
20
-9.66875
11
27.29
21
-9.66875
0
LINE
8
0
6
CONTINUOUS
10
41.29
20
-23.66875
11
41.29
21
-9.66875
0
LINE
8
0
6
CONTINUOUS
10
27.29
20
-9.66875
11
27.29
21
-23.66875
0
LINE
8
0
6
CONTINUOUS
10
46.34
20
-23.66875
11
60.34
21
-23.66875
0
LINE
8
0
6
CONTINUOUS
10
60.34
20
-9.66875
11
46.34
21
-9.66875
0
LINE
8
0
6
CONTINUOUS
10
60.34
20
-23.66875
11
60.34
21
-9.66875
0
LINE
8
0
6
CONTINUOUS
10
46.34
20
-9.66875
11
46.34
21
-23.66875
0
LINE
8
0
6
CONTINUOUS
10
103.49
20
-26.05
11
117.49
21
-26.05
0
LINE
8
0
6
CONTINUOUS
10
117.49
20
-12.05
11
103.49
21
-12.05
0
LINE
8
0
6
CONTINUOUS
10
117.49
20
-26.05
11
117.49
21
-12.05
0
LINE
8
0
6
CONTINUOUS
10
103.49
20
-12.05
11
103.49
21
-26.05
0
LINE
8
0
6
CONTINUOUS
10
122.54
20
-26.05
11
136.54
21
-26.05
0
LINE
8
0
6
CONTINUOUS
10
136.54
20
-12.05
11
122.54
21
-12.05
0
LINE
8
0
6
CONTINUOUS
10
136.54
20
-26.05
11
136.54
21
-12.05
0
LINE
8
0
6
CONTINUOUS
10
122.54
20
-12.05
11
122.54
21
-26.05
0
LINE
8
0
6
CONTINUOUS
10
141.59
20
-26.05
11
155.59
21
-26.05
0
LINE
8
0
6
CONTINUOUS
10
155.59
20
-12.05
11
141.59
21
-12.05
0
LINE
8
0
6
CONTINUOUS
10
155.59
20
-26.05
11
155.59
21
-12.05
0
LINE
8
0
6
CONTINUOUS
10
141.59
20
-12.05
11
141.59
21
-26.05
0
LINE
8
0
6
CONTINUOUS
10
65.39
20
-35.575
11
79.39
21
-35.575
0
LINE
8
0
6
CONTINUOUS
10
79.39
20
-21.575
11
65.39
21
-21.575
0
LINE
8
0
6
CONTINUOUS
10
79.39
20
-35.575
11
79.39
21
-21.575
0
LINE
8
0
6
CONTINUOUS
10
65.39
20
-21.575
11
65.39
21
-35.575
0
LINE
8
0
6
CONTINUOUS
10
84.44
20
-37.95625
11
98.44
21
-37.95625
0
LINE
8
0
6
CONTINUOUS
10
98.44
20
-23.95625
11
84.44
21
-23.95625
0
LINE
8
0
6
CONTINUOUS
10
98.44
20
-37.95625
11
98.44
21
-23.95625
0
LINE
8
0
6
CONTINUOUS
10
84.44
20
-23.95625
11
84.44
21
-37.95625
0
LINE
8
0
6
CONTINUOUS
10
27.29
20
-42.71875
11
41.29
21
-42.71875
0
LINE
8
0
6
CONTINUOUS
10
41.29
20
-28.71875
11
27.29
21
-28.71875
0
LINE
8
0
6
CONTINUOUS
10
41.29
20
-42.71875
11
41.29
21
-28.71875
0
LINE
8
0
6
CONTINUOUS
10
27.29
20
-28.71875
11
27.29
21
-42.71875
0
LINE
8
0
6
CONTINUOUS
10
46.34
20
-42.71875
11
60.34
21
-42.71875
0
LINE
8
0
6
CONTINUOUS
10
60.34
20
-28.71875
11
46.34
21
-28.71875
0
LINE
8
0
6
CONTINUOUS
10
60.34
20
-42.71875
11
60.34
21
-28.71875
0
LINE
8
0
6
CONTINUOUS
10
46.34
20
-28.71875
11
46.34
21
-42.71875
0
LINE
8
0
6
CONTINUOUS
10
103.49
20
-45.1
11
117.49
21
-45.1
0
LINE
8
0
6
CONTINUOUS
10
117.49
20
-31.1
11
103.49
21
-31.1
0
LINE
8
0
6
CONTINUOUS
10
117.49
20
-45.1
11
117.49
21
-31.1
0
LINE
8
0
6
CONTINUOUS
10
103.49
20
-31.1
11
103.49
21
-45.1
0
LINE
8
0
6
CONTINUOUS
10
122.54
20
-45.1
11
136.54
21
-45.1
0
LINE
8
0
6
CONTINUOUS
10
136.54
20
-31.1
11
122.54
21
-31.1
0
LINE
8
0
6
CONTINUOUS
10
136.54
20
-45.1
11
136.54
21
-31.1
0
LINE
8
0
6
CONTINUOUS
10
122.54
20
-31.1
11
122.54
21
-45.1
0
LINE
8
0
6
CONTINUOUS
10
141.59
20
-45.1
11
155.59
21
-45.1
0
LINE
8
0
6
CONTINUOUS
10
155.59
20
-31.1
11
141.59
21
-31.1
0
LINE
8
0
6
CONTINUOUS
10
155.59
20
-45.1
11
155.59
21
-31.1
0
LINE
8
0
6
CONTINUOUS
10
141.59
20
-31.1
11
141.59
21
-45.1
0
LINE
8
0
6
CONTINUOUS
10
65.39
20
-54.625
11
79.39
21
-54.625
0
LINE
8
0
6
CONTINUOUS
10
79.39
20
-40.625
11
65.39
21
-40.625
0
LINE
8
0
6
CONTINUOUS
10
79.39
20
-54.625
11
79.39
21
-40.625
0
LINE
8
0
6
CONTINUOUS
10
65.39
20
-40.625
11
65.39
21
-54.625
0
LINE
8
0
6
CONTINUOUS
10
84.44
20
-57.00625
11
98.44
21
-57.00625
0
LINE
8
0
6
CONTINUOUS
10
98.44
20
-43.00625
11
84.44
21
-43.00625
0
LINE
8
0
6
CONTINUOUS
10
98.44
20
-57.00625
11
98.44
21
-43.00625
0
LINE
8
0
6
CONTINUOUS
10
84.44
20
-43.00625
11
84.44
21
-57.00625
0
LINE
8
0
6
CONTINUOUS
10
27.29
20
-61.76875
11
41.29
21
-61.76875
0
LINE
8
0
6
CONTINUOUS
10
41.29
20
-47.76875
11
27.29
21
-47.76875
0
LINE
8
0
6
CONTINUOUS
10
41.29
20
-61.76875
11
41.29
21
-47.76875
0
LINE
8
0
6
CONTINUOUS
10
27.29
20
-47.76875
11
27.29
21
-61.76875
0
LINE
8
0
6
CONTINUOUS
10
46.34
20
-61.76875
11
60.34
21
-61.76875
0
LINE
8
0
6
CONTINUOUS
10
60.34
20
-47.76875
11
46.34
21
-47.76875
0
LINE
8
0
6
CONTINUOUS
10
60.34
20
-61.76875
11
60.34
21
-47.76875
0
LINE
8
0
6
CONTINUOUS
10
46.34
20
-47.76875
11
46.34
21
-61.76875
0
LINE
8
0
6
CONTINUOUS
10
103.49
20
-64.15
11
117.49
21
-64.15
0
LINE
8
0
6
CONTINUOUS
10
117.49
20
-50.15
11
103.49
21
-50.15
0
LINE
8
0
6
CONTINUOUS
10
117.49
20
-64.15
11
117.49
21
-50.15
0
LINE
8
0
6
CONTINUOUS
10
103.49
20
-50.15
11
103.49
21
-64.15
0
LINE
8
0
6
CONTINUOUS
10
122.54
20
-64.15
11
136.54
21
-64.15
0
LINE
8
0
6
CONTINUOUS
10
136.54
20
-50.15
11
122.54
21
-50.15
0
LINE
8
0
6
CONTINUOUS
10
136.54
20
-64.15
11
136.54
21
-50.15
0
LINE
8
0
6
CONTINUOUS
10
122.54
20
-50.15
11
122.54
21
-64.15
0
LINE
8
0
6
CONTINUOUS
10
141.59
20
-64.15
11
155.59
21
-64.15
0
LINE
8
0
6
CONTINUOUS
10
155.59
20
-50.15
11
141.59
21
-50.15
0
LINE
8
0
6
CONTINUOUS
10
155.59
20
-64.15
11
155.59
21
-50.15
0
LINE
8
0
6
CONTINUOUS
10
141.59
20
-50.15
11
141.59
21
-64.15
0
LINE
8
0
6
CONTINUOUS
10
65.39
20
-73.675
11
79.39
21
-73.675
0
LINE
8
0
6
CONTINUOUS
10
79.39
20
-59.675
11
65.39
21
-59.675
0
LINE
8
0
6
CONTINUOUS
10
79.39
20
-73.675
11
79.39
21
-59.675
0
LINE
8
0
6
CONTINUOUS
10
65.39
20
-59.675
11
65.39
21
-73.675
0
LINE
8
0
6
CONTINUOUS
10
84.44
20
-76.05625
11
98.44
21
-76.05625
0
LINE
8
0
6
CONTINUOUS
10
98.44
20
-62.05625
11
84.44
21
-62.05625
0
LINE
8
0
6
CONTINUOUS
10
98.44
20
-76.05625
11
98.44
21
-62.05625
0
LINE
8
0
6
CONTINUOUS
10
84.44
20
-62.05625
11
84.44
21
-76.05625
0
LINE
8
0
6
CONTINUOUS
10
27.29
20
-80.81875
11
41.29
21
-80.81875
0
LINE
8
0
6
CONTINUOUS
10
41.29
20
-66.81875
11
27.29
21
-66.81875
0
LINE
8
0
6
CONTINUOUS
10
41.29
20
-80.81875
11
41.29
21
-66.81875
0
LINE
8
0
6
CONTINUOUS
10
27.29
20
-66.81875
11
27.29
21
-80.81875
0
LINE
8
0
6
CONTINUOUS
10
46.34
20
-80.81875
11
60.34
21
-80.81875
0
LINE
8
0
6
CONTINUOUS
10
60.34
20
-66.81875
11
46.34
21
-66.81875
0
LINE
8
0
6
CONTINUOUS
10
60.34
20
-80.81875
11
60.34
21
-66.81875
0
LINE
8
0
6
CONTINUOUS
10
46.34
20
-66.81875
11
46.34
21
-80.81875
0
LINE
8
0
6
CONTINUOUS
10
103.49
20
-83.2
11
117.49
21
-83.2
0
LINE
8
0
6
CONTINUOUS
10
117.49
20
-69.2
11
103.49
21
-69.2
0
LINE
8
0
6
CONTINUOUS
10
117.49
20
-83.2
11
117.49
21
-69.2
0
LINE
8
0
6
CONTINUOUS
10
103.49
20
-69.2
11
103.49
21
-83.2
0
LINE
8
0
6
CONTINUOUS
10
122.54
20
-83.2
11
136.54
21
-83.2
0
LINE
8
0
6
CONTINUOUS
10
136.54
20
-69.2
11
122.54
21
-69.2
0
LINE
8
0
6
CONTINUOUS
10
136.54
20
-83.2
11
136.54
21
-69.2
0
LINE
8
0
6
CONTINUOUS
10
122.54
20
-69.2
11
122.54
21
-83.2
0
LINE
8
0
6
CONTINUOUS
10
141.59
20
-83.2
11
155.59
21
-83.2
0
LINE
8
0
6
CONTINUOUS
10
155.59
20
-69.2
11
141.59
21
-69.2
0
LINE
8
0
6
CONTINUOUS
10
155.59
20
-83.2
11
155.59
21
-69.2
0
LINE
8
0
6
CONTINUOUS
10
141.59
20
-69.2
11
141.59
21
-83.2
0
LINE
8
0
6
CONTINUOUS
10
8.24
20
-87.01
11
22.24
21
-87.01
0
LINE
8
0
6
CONTINUOUS
10
22.24
20
-73.01
11
8.24
21
-73.01
0
LINE
8
0
6
CONTINUOUS
10
22.24
20
-87.01
11
22.24
21
-73.01
0
LINE
8
0
6
CONTINUOUS
10
8.24
20
-73.01
11
8.24
21
-87.01
0
LINE
8
0
6
CONTINUOUS
10
71.58125
20
-102.25
11
85.58125
21
-102.25
0
LINE
8
0
6
CONTINUOUS
10
85.58125
20
-88.25
11
71.58125
21
-88.25
0
LINE
8
0
6
CONTINUOUS
10
85.58125
20
-102.25
11
85.58125
21
-88.25
0
LINE
8
0
6
CONTINUOUS
10
71.58125
20
-88.25
11
71.58125
21
-102.25
0
LINE
8
0
6
CONTINUOUS
10
103.49
20
-102.25
11
117.49
21
-102.25
0
LINE
8
0
6
CONTINUOUS
10
117.49
20
-88.25
11
103.49
21
-88.25
0
LINE
8
0
6
CONTINUOUS
10
117.49
20
-102.25
11
117.49
21
-88.25
0
LINE
8
0
6
CONTINUOUS
10
103.49
20
-88.25
11
103.49
21
-102.25
0
LINE
8
0
6
CONTINUOUS
10
122.54
20
-102.25
11
136.54
21
-102.25
0
LINE
8
0
6
CONTINUOUS
10
136.54
20
-88.25
11
122.54
21
-88.25
0
LINE
8
0
6
CONTINUOUS
10
136.54
20
-102.25
11
136.54
21
-88.25
0
LINE
8
0
6
CONTINUOUS
10
122.54
20
-88.25
11
122.54
21
-102.25
0
LINE
8
0
6
CONTINUOUS
10
141.59
20
-102.25
11
155.59
21
-102.25
0
LINE
8
0
6
CONTINUOUS
10
155.59
20
-88.25
11
141.59
21
-88.25
0
LINE
8
0
6
CONTINUOUS
10
155.59
20
-102.25
11
155.59
21
-88.25
0
LINE
8
0
6
CONTINUOUS
10
141.59
20
-88.25
11
141.59
21
-102.25
0
LINE
8
0
6
CONTINUOUS
10
14.381689
20
-121.074125
11
25.106311
21
-112.075098
0
LINE
8
0
6
CONTINUOUS
10
16.107284
20
-101.350476
11
5.382662
21
-110.349503
0
LINE
8
0
6
CONTINUOUS
10
25.106311
20
-112.075098
11
16.107284
21
-101.350476
0
LINE
8
0
6
CONTINUOUS
10
5.382662
20
-110.349503
11
14.381689
21
-121.074125
0
LINE
8
0
6
CONTINUOUS
10
30.601408
20
-108.70633
11
43.488476
21
-103.236094
0
LINE
8
0
6
CONTINUOUS
10
38.01824
20
-90.349026
11
25.131172
21
-95.819262
0
LINE
8
0
6
CONTINUOUS
10
43.488476
20
-103.236094
11
38.01824
21
-90.349026
0
LINE
8
0
6
CONTINUOUS
10
25.131172
20
-95.819262
11
30.601408
21
-108.70633
0
LINE
8
0
6
CONTINUOUS
10
49.976591
20
-103.991165
11
63.899898
21
-102.527767
0
LINE
8
0
6
CONTINUOUS
10
62.436499
20
-88.60446
11
48.513193
21
-90.067859
0
LINE
8
0
6
CONTINUOUS
10
63.899898
20
-102.527767
11
62.436499
21
-88.60446
0
LINE
8
0
6
CONTINUOUS
10
48.513193
20
-90.067859
11
49.976591
21
-103.991165
0
ENDSEC
0
EOF